<svg xmlns="http://www.w3.org/2000/svg" xmlns:svg="http://www.w3.org/2000/svg" xmlns:xlink="http://www.w3.org/1999/xlink" id="svg4744" width="24" height="24" version="1.1"><defs id="defs4746"><linearGradient id="linearGradient4956" x1="208.152" x2="219.475" y1="495.936" y2="522.726" gradientTransform="translate(-200.46471,542.53003)" gradientUnits="userSpaceOnUse" xlink:href="#linearGradient4964"/><linearGradient id="linearGradient4964"><stop style="stop-color:#fff;stop-opacity:1" id="stop4966" offset="0"/><stop style="stop-color:#000;stop-opacity:1" id="stop4968" offset="1"/></linearGradient></defs><metadata id="metadata4749"/><g id="layer1" transform="translate(0,-1028.3622)"><path style="font-size:medium;font-style:normal;font-variant:normal;font-weight:400;font-stretch:normal;text-indent:0;text-align:start;text-decoration:none;line-height:normal;letter-spacing:normal;word-spacing:normal;text-transform:none;direction:ltr;block-progression:tb;writing-mode:lr-tb;text-anchor:start;baseline-shift:baseline;color:#000;fill:#000;fill-opacity:1;stroke:none;stroke-width:3;marker:none;visibility:visible;display:inline;overflow:visible;enable-background:accumulate;font-family:Sans;-inkscape-font-specification:Sans" id="path3883-5-6-5-1" d="m 12.359286,1029.3108 c -4.0034655,0 -7.384678,2.6727 -8.4791052,6.3326 l 3.2556903,1.0374 c 0.6432271,-2.2863 2.7195076,-3.9354 5.2234149,-3.9354 2.462819,0 4.508657,1.6 5.187639,3.8282 l 3.291467,-0.9661 c -1.10725,-3.6394 -4.490271,-6.2967 -8.479106,-6.2967 z"/><path style="fill:#000;fill-opacity:1;stroke:#000;stroke-width:.5;stroke-linecap:round;stroke-linejoin:round;stroke-miterlimit:4;stroke-opacity:1;stroke-dasharray:none;stroke-dashoffset:0" id="path3911-8-4-89" d="m -81.290873,146.85677 -1.521627,0 -1.521627,0 0.760813,-1.31777 0.760814,-1.31777 0.760814,1.31777 z" transform="matrix(-2.6592581,-0.89663863,0.89663863,-2.6592581,-346.62563,1353.2936)"/><path style="font-size:medium;font-style:normal;font-variant:normal;font-weight:400;font-stretch:normal;text-indent:0;text-align:start;text-decoration:none;line-height:normal;letter-spacing:normal;word-spacing:normal;text-transform:none;direction:ltr;block-progression:tb;writing-mode:lr-tb;text-anchor:start;baseline-shift:baseline;color:#000;fill:#e78d22;fill-opacity:1;stroke:none;stroke-width:3;marker:none;visibility:visible;display:inline;overflow:visible;enable-background:accumulate;font-family:Sans;-inkscape-font-specification:Sans" id="path3883-5-6-5-8-5" d="m 11.640704,1051.5797 c 4.003466,0 7.384679,-2.6727 8.479106,-6.3326 l -3.25569,-1.0375 c -0.643227,2.2863 -2.719508,3.9355 -5.223416,3.9355 -2.4628183,0 -4.5086567,-1.6001 -5.1876377,-3.8282 l -3.2914671,0.966 c 1.1072495,3.6394 4.4902824,6.2968 8.4791048,6.2968 z"/><path style="fill:#e78d22;fill-opacity:1;stroke:#e68c22;stroke-width:.5;stroke-linecap:round;stroke-linejoin:round;stroke-miterlimit:4;stroke-opacity:1;stroke-dasharray:none;stroke-dashoffset:0" id="path3911-8-4-8-9" d="m -81.290873,146.85677 -1.521627,0 -1.521627,0 0.760813,-1.31777 0.760814,-1.31777 0.760814,1.31777 z" transform="matrix(2.6592581,0.89663863,-0.89663863,2.6592581,370.62562,727.59675)"/></g></svg>