<svg xmlns="http://www.w3.org/2000/svg" xmlns:osb="http://www.openswatchbook.org/uri/2009/osb" xmlns:svg="http://www.w3.org/2000/svg" xmlns:xlink="http://www.w3.org/1999/xlink" id="svg4744" width="24" height="24" version="1.1"><defs id="defs4746"><linearGradient id="linearGradient3770" osb:paint="gradient"><stop style="stop-color:#ddd;stop-opacity:1" id="stop3772" offset="0"/><stop style="stop-color:#ddd;stop-opacity:0" id="stop3774" offset="1"/></linearGradient><linearGradient id="linearGradient5559"><stop style="stop-color:#323232;stop-opacity:1" id="stop5561" offset="0"/><stop style="stop-color:#fff;stop-opacity:0" id="stop5563" offset="1"/></linearGradient><linearGradient id="linearGradient4964"><stop style="stop-color:#fff;stop-opacity:1" id="stop4966" offset="0"/><stop style="stop-color:#000;stop-opacity:1" id="stop4968" offset="1"/></linearGradient><linearGradient id="linearGradient5565-3" x1="2.304" x2="7.671" y1="1040.556" y2="1038.536" gradientUnits="userSpaceOnUse" xlink:href="#linearGradient5559-5"/><linearGradient id="linearGradient5559-5"><stop style="stop-color:#323232;stop-opacity:1" id="stop5561-9" offset="0"/><stop style="stop-color:#fff;stop-opacity:0" id="stop5563-0" offset="1"/></linearGradient><radialGradient id="radialGradient3778" cx="4.532" cy="11.574" r="2.875" fx="4.532" fy="11.574" gradientTransform="matrix(1.1066941,-0.25899221,0.5402097,2.3083583,-6.9790102,-13.212982)" gradientUnits="userSpaceOnUse" xlink:href="#linearGradient3770"/></defs><metadata id="metadata4749"/><g id="layer1" transform="translate(0,-1028.3622)"><rect style="fill:none;stroke:none" id="rect2996-9-18-3" width="23.04" height="23.04" x=".48" y="1028.842" ry="3.727"/><path style="fill:#5f5f5f;stroke:none;stroke-width:1px;stroke-linecap:butt;stroke-linejoin:miter;stroke-opacity:1;fill-opacity:1" id="path5021" d="m 2.5253814,1051.794 c 1.2626906,-4.5457 0.7576144,-6.6923 2.9673231,-7.8918 2.2097086,-1.1996 5.6821075,7.2604 10.6697355,4.8613 4.987628,-2.3991 6.81853,-12.1849 6.81853,-12.1849 l -13.5739245,-6.5029 c 0,0 -0.2525381,4.7351 -2.0834396,5.7453 -1.8309014,1.0101 -2.020305,-2.0835 -3.8512065,-1.9572 -1.8309015,0.1263 -2.65165046,6.8816 -2.65165046,6.8816 z"/><path style="fill:#666;fill-opacity:1;stroke:none" id="path3780" d="m 1.7392114,1036.9605 1.7400782,9.2359 0.7334667,-1.1196 -2.3189484,-8.8506 z"/><path style="fill:gray;fill-opacity:1;stroke:none" id="path3780-1" d="m 1.9333996,1036.5945 1.8847029,9.1202 0.9441199,-1.3592 -2.4282647,-8.8506 z"/><path style="fill:#999;fill-opacity:1;stroke:none" id="path3780-1-3" d="m 2.3843293,1035.8429 1.8557779,9.1491 0.9730449,-1.0121 -2.4282647,-9.2266 z"/><path style="fill:#b3b3b3;fill-opacity:1;stroke:none" id="path3780-1-3-1" d="m 2.6159282,1034.9347 2.3780224,9.1557 1.1210607,-0.4318 -2.4043268,-9.64 z"/><path style="fill:#e6e6e6;fill-opacity:1;stroke:none" id="path3780-1-3-1-7" d="m 3.4569454,1034.0692 2.3490975,9.7631 1.0632108,0.3492 -2.317552,-9.9871 z"/><path style="fill:#ccc;fill-opacity:1;stroke:none" id="path3780-1-3-1-7-7" d="m 4.4706556,1034.2066 2.3490975,9.7631 1.0427578,0.2207 -2.6038942,-9.1837 z"/><path style="fill:#666;fill-opacity:1;stroke:none" id="path3780-1-3-1-7-7-3-5-5" d="m 6.3625592,1036.1621 2.3081915,8.9859 3.5789313,2.5932 -5.3855038,-11.3516 z"/><path style="fill:gray;fill-opacity:1;stroke:none" id="path3780-1-3-1-7-7-3-5" d="m 5.8512339,1035.7121 2.5395909,9.6512 1.7687882,0.9698 -3.622683,-9.8822 z"/><path style="fill:#b3b3b3;fill-opacity:1;stroke:none" id="path3780-1-3-1-7-7-3" d="m 5.2580965,1035.2212 2.3081915,8.9859 1.2481394,1.0276 -2.8706348,-9.2747 z"/><path style="fill:gray;fill-opacity:1;stroke:none" id="path3780-1-1" d="m 8.263662,1035.0641 10.222454,8.992 1.439508,-2.2101 -10.9517978,-7.734 z"/><path style="fill:#999;fill-opacity:1;stroke:none" id="path3780-1-3-3" d="m 8.910739,1034.2754 10.958767,7.8058 0.989527,-1.883 -11.5654062,-7.2022 z"/><path style="fill:#b3b3b3;fill-opacity:1;stroke:none" id="path3780-1-3-1-9" d="m 9.1225318,1033.4126 11.2787472,7.3445 1.097081,-2.2801 -11.8862746,-6.8151 z"/><path style="fill:#e6e6e6;fill-opacity:1;stroke:none" id="path3780-1-3-1-7-6" d="m 9.6014125,1031.9873 11.7929675,6.4963 0.62285,-2.3544 -12.0739613,-5.8085 z"/><path style="fill:#666;fill-opacity:1;stroke:none" id="path3780-1-1-1" d="m 7.9134433,1035.9069 10.1815467,8.7056 1.194072,-1.4738 -10.7063605,-7.8976 z"/><path style="fill:none;stroke:#000;stroke-width:2;stroke-linecap:round;stroke-linejoin:miter;stroke-miterlimit:4;stroke-opacity:1;stroke-dasharray:none" id="path4349-4-6-4" d="m 2.6611679,1051.1205 c 0,0 0.5133682,-6.7127 3.5901981,-6.8105 1.7354836,-0.055 3.3097213,4.9046 8.015455,4.2703 4.705735,-0.6343 8.575185,-12.128 8.575185,-12.128"/><path style="fill:none;stroke:#000;stroke-width:.80000000999999998;stroke-linecap:round;stroke-linejoin:miter;stroke-miterlimit:4;stroke-opacity:1;stroke-dasharray:none" id="path4349-4-6-4-6" d="m 1.0598411,1041.1125 c 0,0 0.6724427,-6.7398 2.3330609,-7.0291 1.8695178,-0.3257 1.3675887,2.8737 3.7521199,2.0839 2.3845312,-0.7897 2.508132,-5.8969 2.508132,-5.8969"/></g></svg>