<svg xmlns="http://www.w3.org/2000/svg" xmlns:svg="http://www.w3.org/2000/svg" id="svg4744" width="24" height="24" version="1.1"><defs id="defs4746"><linearGradient id="linearGradient4964"><stop style="stop-color:#fff;stop-opacity:1" id="stop4966" offset="0"/><stop style="stop-color:#000;stop-opacity:1" id="stop4968" offset="1"/></linearGradient></defs><metadata id="metadata4749"/><g id="layer1" transform="translate(0,-1028.3622)"><path style="fill:#b3b3b3;fill-opacity:1;stroke:#b3b3b3;stroke-width:.90328723;stroke-linecap:butt;stroke-linejoin:miter;stroke-miterlimit:4;stroke-opacity:1;stroke-dasharray:none" id="path4257-2-1" d="m 11.917989,1038.7705 c 0.24424,0.013 0.62254,-0.088 0.8243,-0.022 0.85242,0.2834 0.84104,1.7233 1.52298,2.4319 0.68194,0.7086 5.7931,0.5647 6.13407,-0.049 0.34097,-0.6141 2.59484,-3.2326 0.96335,-5.6823 -1.61666,-2.4274 -8.2985,-0.2287 -9.35219,-0.238"/><path style="fill:#ff2a2a;fill-opacity:.47089945;stroke:none" id="path4259-9-2" d="m 20.990479,1037.1467 c 0,1.483 -0.32011,3.4436 -2.41451,3.4922 -1.3778,0.032 -3.25432,0.3025 -3.84479,-0.4275 -0.59047,-0.73 -1.03827,-2.4604 -1.03827,-3.2019 0,-1.483 1.57747,-1.7745 3.67244,-1.7745 2.09496,0 3.62513,0.4288 3.62513,1.9117 z"/><path style="fill:#b3b3b3;fill-opacity:1;stroke:#b3b3b3;stroke-width:.90328723;stroke-linecap:butt;stroke-linejoin:miter;stroke-miterlimit:4;stroke-opacity:1;stroke-dasharray:none" id="path4257-8-9-0" d="m 11.981169,1038.772 c -0.24423,0.013 -0.52165,-0.088 -0.7234,-0.021 -0.85243,0.2834 -0.84106,1.7233 -1.5229899,2.4319 -0.68193,0.7086 -5.79309,0.5647 -6.13407,-0.049 -0.34097,-0.6141 -2.59483,-3.2325 -0.96334,-5.6822 1.61666,-2.4275 8.4330099,-0.2288 9.4866899,-0.2381"/><path style="fill:#2a7fff;fill-opacity:.47089945;stroke:none" id="path4259-1-8-1" d="m 3.0095691,1037.1482 c 0,1.483 0.3201,3.4436 2.41451,3.4922 1.3778,0.032 3.25432,0.3025 3.84479,-0.4275 0.59048,-0.73 1.0382799,-2.4604 1.0382799,-3.2019 0,-1.483 -1.5774699,-1.7745 -3.6724399,-1.7745 -2.09498,0 -3.62514,0.4288 -3.62514,1.9117 z"/><text id="text4420-3-6" x="11.617" y="1222.524" transform="scale(1.1639024,0.85917857)" xml:space="preserve" style="font-size:11.52037716px;font-style:normal;font-variant:normal;font-weight:900;font-stretch:normal;text-align:start;line-height:125%;letter-spacing:0;word-spacing:0;writing-mode:lr-tb;text-anchor:start;fill:#e68c22;fill-opacity:1;stroke:none;font-family:Arial Black;-inkscape-font-specification:'Arial Black, Heavy'"><tspan id="tspan4422-8-4" x="11.617" y="1222.524">2</tspan></text><rect id="rect2996-9-4-7-5-1-6-6-1" width="23.04" height="23.04" x=".48" y="1028.842" ry="3.727" style="fill:none;stroke:none"/></g></svg>