<svg xmlns="http://www.w3.org/2000/svg" xmlns:svg="http://www.w3.org/2000/svg" id="svg4744" width="24" height="24" version="1.1"><defs id="defs4746"><linearGradient id="linearGradient4964"><stop style="stop-color:#fff;stop-opacity:1" id="stop4966" offset="0"/><stop style="stop-color:#000;stop-opacity:1" id="stop4968" offset="1"/></linearGradient></defs><metadata id="metadata4749"/><g id="layer1" transform="translate(0,-1028.3622)"><rect style="fill:none;stroke:none" id="rect2996-9-5-2-1-4" width="23.04" height="23.04" x=".48" y="1028.842" ry="3.727"/><path style="fill:none;stroke:#000;stroke-width:1px;stroke-linecap:butt;stroke-linejoin:miter;stroke-opacity:1" id="path4587-6-1-3" d="m 3.729421,1049.0748 c -2.14658,-7.7024 0.62887,-18.3324 5.93464,-18.1196 5.305771,0.2127 11.416531,11.1149 11.616761,18.4984"/><path style="fill:none;stroke:#000;stroke-width:1px;stroke-linecap:butt;stroke-linejoin:miter;stroke-opacity:1" id="path4589-0-3-1" d="m 4.676431,1035.0589 c 2.14658,0.442 4.73509,0.8839 6.566001,0.3157 1.8309,-0.5682 3.09359,-1.8309 3.09359,-1.8309"/><path style="fill:none;stroke:#000;stroke-width:1px;stroke-linecap:butt;stroke-linejoin:miter;stroke-opacity:1" id="path4591-1-8-2" d="m 3.350611,1039.8571 c 3.72494,1.0102 5.61897,1.7047 8.712571,1.0733 3.09359,-0.6313 5.3033,-3.1567 5.3033,-3.1567"/><path style="fill:none;stroke:#000;stroke-width:1px;stroke-linecap:butt;stroke-linejoin:miter;stroke-opacity:1" id="path4593-6-7-3" d="m 3.350611,1046.6125 c 6.31345,1.0733 9.470181,1.2627 12.626911,-0.1262 3.15672,-1.389 4.23001,-2.9674 4.23001,-2.9674"/><path style="fill:none;stroke:#000;stroke-width:1px;stroke-linecap:butt;stroke-linejoin:miter;stroke-opacity:1" id="path4595-5-4-3" d="m 9.727201,1031.1446 c 0,0 1.641501,1.1995 3.346131,4.1037 1.70463,2.9042 4.86136,10.6066 4.92449,14.3316"/><path style="fill:none;stroke:#000;stroke-width:1px;stroke-linecap:butt;stroke-linejoin:miter;stroke-opacity:1" id="path4597-7-2-4" d="m 9.095851,1031.2077 c 0.56821,5.8084 0.63135,7.1342 2.209711,12.8795 1.57836,5.7452 2.02031,6.1871 2.02031,6.1871"/><path style="fill:none;stroke:#000;stroke-width:1px;stroke-linecap:butt;stroke-linejoin:miter;stroke-opacity:1" id="path4597-0-5-7-1" d="m 7.927861,1031.4602 c -1.45209,3.2199 -1.52002,5.6711 -1.45209,9.4071 0.10695,5.8827 1.8309,9.0282 1.8309,9.0282"/></g></svg>