<svg xmlns="http://www.w3.org/2000/svg" xmlns:svg="http://www.w3.org/2000/svg" xmlns:xlink="http://www.w3.org/1999/xlink" id="svg4744" width="24" height="24" version="1.1"><defs id="defs4746"><linearGradient id="linearGradient3783"><stop style="stop-color:#bababa;stop-opacity:1" id="stop3785" offset="0"/><stop style="stop-color:#323232;stop-opacity:1" id="stop3787" offset="1"/></linearGradient><linearGradient id="linearGradient3772"><stop style="stop-color:#000;stop-opacity:1" id="stop3774" offset="0"/><stop style="stop-color:#666;stop-opacity:0" id="stop3776" offset="1"/></linearGradient><linearGradient id="linearGradient3789" x1="14.905" x2="4.632" y1="1036.342" y2="1050.27" gradientUnits="userSpaceOnUse" xlink:href="#linearGradient3783"/><radialGradient id="radialGradient3809" cx="6.789" cy="9.887" r="4.816" fx="6.789" fy="9.887" gradientTransform="matrix(0.60269921,0.37393067,-0.15859895,0.25562882,3.9925911,1032.4046)" gradientUnits="userSpaceOnUse" xlink:href="#linearGradient3772"/><linearGradient id="linearGradient3789-8" x1="14.905" x2="4.632" y1="1036.342" y2="1050.27" gradientUnits="userSpaceOnUse" xlink:href="#linearGradient3783-4"/><linearGradient id="linearGradient3783-4"><stop style="stop-color:#bababa;stop-opacity:1" id="stop3785-6" offset="0"/><stop style="stop-color:#bababa;stop-opacity:0" id="stop3787-8" offset="1"/></linearGradient></defs><metadata id="metadata4749"/><g id="layer1" transform="translate(0,-1028.3622)"><rect id="rect2996-9-2-7-9-4-68-54-5-6" width="23.04" height="23.04" x="-23.52" y="1028.842" ry="3.727" transform="scale(-1,1)" style="fill:none;stroke:none"/><path id="path2996" d="m 23.024703,1037.2203 c 0,5.7054 -4.269343,7.615 -7.816212,9.3469 -1.746948,0.853 -3.668315,5.282 -6.3162479,5.0316 -2.647932,-0.2504 -6.754877,0 -6.754877,-2.8502 0,-0.7132 0.291864,-3.1125 0.35576,-3.8777 0.0639,-0.7651 0.158337,-1.5495 0.280514,-2.339 0.122176,-0.7895 -2.14068404,-0.8246 -1.96584304,-1.6106 0.99854204,-1.8365 3.07255104,-4.222 4.16501904,-5.7177 0.10032,-1.3813 0.548462,-2.1602 1.362697,-3.166 0.32934,-0.494 0.672376,-0.9236 1.026301,-1.2751 3.3720339,-3.3488 15.6628889,0.7524 15.6628889,6.4578 z" style="fill:url(#linearGradient3789);fill-opacity:1;stroke:#ebebeb;stroke-width:.98278356;stroke-opacity:1"/><path style="fill:url(#radialGradient3809);fill-opacity:1;stroke:none" id="path3002" d="m 6.1361961,1033.5811 c 0,0 6.4747339,3.838 4.3319889,6.4597 -1.2877699,6.4588 -8.8794539,0.5886 -8.8794539,0.5886 l 3.694259,-5.134 z"/><path style="fill:#fff;fill-opacity:1;stroke:#fff;stroke-opacity:1" id="path3781" d="m 17.678571,7.7276788 c 0,0.7766504 -1.369129,1.40625 -3.058035,1.40625 -1.688907,0 -3.058036,-0.6295996 -3.058036,-1.40625 0,-0.7766505 1.369129,-1.40625 3.058036,-1.40625 1.688906,0 3.058035,0.6295995 3.058035,1.40625 z" transform="matrix(0.78386885,0.35429348,-0.49366602,1.0922285,8.2694881,1021.1235)"/><path id="path2996-7" d="m 23.024703,1037.2203 c 0,5.7054 -4.269343,7.615 -7.816212,9.3469 -1.746948,0.853 -3.668315,5.282 -6.3162479,5.0316 -2.647932,-0.2504 -6.754877,0 -6.754877,-2.8502 0,-0.7132 0.291863,-3.1125 0.35576,-3.8777 0.0639,-0.7651 0.158336,-1.5495 0.280513,-2.339 0.122177,-0.7895 -2.14068404,-0.8246 -1.96584204,-1.6106 0.99854104,-1.8365 3.07255104,-4.222 4.16501804,-5.7177 0.10032,-1.3813 0.548463,-2.1602 1.362697,-3.166 0.32934,-0.494 0.672377,-0.9236 1.026302,-1.2751 3.3720339,-3.3488 15.6628889,0.7524 15.6628889,6.4578 z" style="fill:none;stroke:#ebebeb;stroke-width:.98278356;stroke-opacity:1"/></g></svg>