<svg xmlns="http://www.w3.org/2000/svg" xmlns:svg="http://www.w3.org/2000/svg" id="svg4744" width="24" height="24" version="1.1"><defs id="defs4746"><linearGradient id="linearGradient4964"><stop style="stop-color:#fff;stop-opacity:1" id="stop4966" offset="0"/><stop style="stop-color:#000;stop-opacity:1" id="stop4968" offset="1"/></linearGradient></defs><metadata id="metadata4749"/><g id="layer1" transform="translate(0,-1028.3622)"><path id="path4257-6-0" d="m 11.917932,1038.7705 c 0.24424,0.013 0.62254,-0.088 0.8243,-0.022 0.85242,0.2834 0.84104,1.7233 1.52298,2.4319 0.68194,0.7086 5.7931,0.5647 6.13407,-0.049 0.34097,-0.6141 2.59484,-3.2326 0.96335,-5.6823 -1.61666,-2.4274 -8.2985,-0.2287 -9.35219,-0.238" style="fill:#b3b3b3;fill-opacity:1;stroke:#b3b3b3;stroke-width:.90328723;stroke-linecap:butt;stroke-linejoin:miter;stroke-miterlimit:4;stroke-opacity:1;stroke-dasharray:none"/><path id="path4259-6-6" d="m 20.990422,1037.1467 c 0,1.483 -0.32011,3.4436 -2.41451,3.4922 -1.3778,0.032 -3.25432,0.3024 -3.84479,-0.4275 -0.59047,-0.73 -1.03827,-2.4605 -1.03827,-3.2019 0,-1.483 1.57747,-1.7745 3.67244,-1.7745 2.09496,0 3.62513,0.4287 3.62513,1.9117 z" style="fill:#fff;fill-opacity:1;stroke:none"/><path id="path4257-8-2-1" d="m 11.981112,1038.772 c -0.24423,0.013 -0.52165,-0.088 -0.7234,-0.021 -0.85243,0.2834 -0.84106,1.7233 -1.5229901,2.4319 -0.68193,0.7086 -5.79309,0.5647 -6.13407,-0.049 -0.34097,-0.6141 -2.59483,-3.2326 -0.96334,-5.6823 1.61666,-2.4274 8.4330101,-0.2287 9.4866901,-0.238" style="fill:#b0b0b0;fill-opacity:1;stroke:#b3b3b3;stroke-width:.90328723;stroke-linecap:butt;stroke-linejoin:miter;stroke-miterlimit:4;stroke-opacity:1;stroke-dasharray:none"/><path id="path4259-1-3-8" d="m 3.0095119,1037.1482 c 0,1.483 0.3201,3.4436 2.41451,3.4922 1.3778,0.032 3.25432,0.3024 3.84479,-0.4275 0.59048,-0.73 1.0382801,-2.4605 1.0382801,-3.2019 0,-1.483 -1.5774701,-1.7745 -3.6724401,-1.7745 -2.09498,0 -3.62514,0.4287 -3.62514,1.9117 z" style="fill:#fff;fill-opacity:1;stroke:none"/><rect style="fill:none;stroke:none" id="rect2996-9-4-7-5-1-6-62-7" width="23.04" height="23.04" x=".48" y="1028.842" ry="3.727"/></g></svg>