<svg xmlns="http://www.w3.org/2000/svg" xmlns:svg="http://www.w3.org/2000/svg" id="svg4744" width="24" height="24" version="1.1"><defs id="defs4746"><linearGradient id="linearGradient4964"><stop style="stop-color:#fff;stop-opacity:1" id="stop4966" offset="0"/><stop style="stop-color:#000;stop-opacity:1" id="stop4968" offset="1"/></linearGradient></defs><metadata id="metadata4749"/><g id="layer1" transform="translate(0,-1028.3622)"><rect id="rect2996-9-2-7-9-4-68-54-7-3-1-0" width="23.04" height="23.04" x="-23.52" y="1028.842" ry="3.727" transform="scale(-1,1)" style="fill:none;stroke:none"/><g id="g6866"><path id="path5941-8" d="m 23.779353,1052.182 c -0.02438,-1.9825 -0.06934,-2.7647 -0.02232,-5.128 l -1.990952,3.1548 -3.538976,1.9732 c 2.212736,-0.01 3.436696,-0.024 5.552249,0 z" style="fill:#eaeaea;fill-opacity:1;stroke:#eaeaea;stroke-width:.22638023;stroke-linejoin:round;stroke-miterlimit:4;stroke-opacity:1"/><path id="path5941-8-71" d="m 0.25959072,1052.1583 c 0.02438,-1.9825 0.06934,-2.7647 0.02232,-5.128 l 1.99095198,3.1548 3.538976,1.9732 c -2.212736,-0.01 -3.436696,-0.024 -5.55224898,0 z" style="fill:#eaeaea;fill-opacity:1;stroke:#eaeaea;stroke-width:.22638023;stroke-linejoin:round;stroke-miterlimit:4;stroke-opacity:1"/><path id="path5941-8-8" d="m 23.791131,1028.581 c -0.02438,1.9825 -0.06934,2.7647 -0.02232,5.128 l -1.990952,-3.1548 -3.538976,-1.9732 c 2.212736,0.01 3.436696,0.024 5.552249,0 z" style="fill:#eaeaea;fill-opacity:1;stroke:#eaeaea;stroke-width:.22638023;stroke-linejoin:round;stroke-miterlimit:4;stroke-opacity:1"/><path id="path5941-8-71-6" d="m 0.27136898,1028.6047 c 0.02438,1.9825 0.06934,2.7647 0.02232,5.128 l 1.99095192,-3.1548 3.538976,-1.9732 c -2.212736,0.01 -3.436696,0.024 -5.55224892,0 z" style="fill:#eaeaea;fill-opacity:1;stroke:#eaeaea;stroke-width:.22638023;stroke-linejoin:round;stroke-miterlimit:4;stroke-opacity:1"/></g><path style="fill:none;stroke:#eaeaea;stroke-width:1;stroke-linecap:round;stroke-miterlimit:4;stroke-opacity:1;stroke-dasharray:none" id="path6864" d="m 20.089285,12.883928 a 8.2589283,8.2589283 0 1 1 -16.5178567,0 8.2589283,8.2589283 0 1 1 16.5178567,0 z" transform="translate(0.19500426,1027.4976)"/></g></svg>