<svg xmlns="http://www.w3.org/2000/svg" xmlns:svg="http://www.w3.org/2000/svg" id="svg3065" width="256" height="256" version="1.1"><metadata id="metadata3070"/><g id="layer1" transform="matrix(3.1513368,0,0,3.122843,-943.919,-1437.6544)"><path style="fill:#414141;fill-rule:evenodd;stroke:#414142;stroke-width:1px;stroke-linecap:butt;stroke-linejoin:miter;stroke-opacity:1;fill-opacity:1" id="path2985" d="m 237.825,120.18052 a 116.65823,116.65823 0 1 1 -233.3164703,0 116.65823,116.65823 0 1 1 233.3164703,0 z" transform="matrix(0.31732565,0,0,0.32022103,302.03339,462.17183)"/><path id="path3406" d="m 340.00001,461.37752 c -21.83498,0 -39.55612,17.72114 -39.55612,39.55611 0,21.83495 17.72114,39.55608 39.55612,39.55608 21.83497,0 39.5561,-17.72113 39.5561,-39.55608 0,-21.83497 -17.72113,-39.55611 -39.5561,-39.55611 z m 0,3.07659 c 20.11947,-1e-5 36.42458,16.36007 36.42458,36.47952 0,20.11944 -16.30514,36.42457 -36.42458,36.42457 -20.11946,0 -36.42459,-16.30514 -36.42459,-36.42457 10e-6,-20.11945 16.30513,-36.47952 36.42459,-36.47952 z" style="fill:#8a979b;fill-opacity:1;fill-rule:nonzero;stroke:none;stroke-width:1;marker:none;visibility:visible;display:inline;overflow:visible;enable-background:accumulate"/><path id="path3408" d="m 340.00001,476.43135 c -1.88708,0 -3.46118,1.51915 -3.46117,3.40621 0,1.88708 1.57407,3.40626 3.46117,3.40623 1.88707,0 3.40623,-1.51915 3.40622,-3.40623 0,-1.88706 -1.51916,-3.40625 -3.40622,-3.40621 z m -25.65654,3.02164 17.19592,10.43842 6.99168,45.48951 0,-35.82024 3.15763,0 0,35.82024 6.71698,-45.48951 17.25086,-10.43842 -23.96784,7.96616 0,8.2958 -3.15763,0 0,-8.2958 -24.1876,-7.96616 z" style="fill:#f58220;fill-opacity:1;fill-rule:nonzero;stroke:none;stroke-width:1;marker:none;visibility:visible;display:inline;overflow:visible;enable-background:accumulate"/></g></svg>